<?xml version="1.0" encoding="UTF-8" standalone="no"?>
<svg
   xmlns:dc="http://purl.org/dc/elements/1.1/"
   xmlns:cc="http://creativecommons.org/ns#"
   xmlns:rdf="http://www.w3.org/1999/02/22-rdf-syntax-ns#"
   xmlns:svg="http://www.w3.org/2000/svg"
   xmlns="http://www.w3.org/2000/svg"
   xmlns:sodipodi="http://sodipodi.sourceforge.net/DTD/sodipodi-0.dtd"
   xmlns:inkscape="http://www.inkscape.org/namespaces/inkscape"
   sodipodi:docname="ExpandButton.svg"
   inkscape:version="1.0 (4035a4fb49, 2020-05-01)"
   id="svg8"
   version="1.1"
   viewBox="0 0 80 80"
   height="80mm"
   width="80mm">
  <defs
     id="defs2" />
  <sodipodi:namedview
     inkscape:window-maximized="1"
     inkscape:window-y="-8"
     inkscape:window-x="-8"
     inkscape:window-height="1017"
     inkscape:window-width="1920"
     showgrid="false"
     inkscape:document-rotation="0"
     inkscape:current-layer="layer3"
     inkscape:document-units="mm"
     inkscape:cy="147.09946"
     inkscape:cx="163.59431"
     inkscape:zoom="1.979899"
     inkscape:pageshadow="2"
     inkscape:pageopacity="0.0"
     borderopacity="1.0"
     bordercolor="#666666"
     pagecolor="#ffffff"
     id="base" />
  <metadata
     id="metadata5">
    <rdf:RDF>
      <cc:Work
         rdf:about="">
        <dc:format>image/svg+xml</dc:format>
        <dc:type
           rdf:resource="http://purl.org/dc/dcmitype/StillImage" />
        <dc:title></dc:title>
      </cc:Work>
    </rdf:RDF>
  </metadata>
  <g
     inkscape:label="Layer 1"
     id="layer3"
     inkscape:groupmode="layer">
    <g
       style="opacity:1;fill:#ffffff"
       transform="scale(0.26458333)"
       id="g899">
      <path
         id="path901"
         d="M 0,0 V 113.38672 H 18.898438 V 18.898438 H 113.38672 V 0 Z m 188.97656,0 v 18.898438 h 94.48828 v 94.488282 h 18.89649 V 0 Z M 0,188.97656 V 302.36133 H 113.38672 V 283.46484 H 18.898438 v -94.48828 z m 283.46484,0 v 94.48828 h -94.48828 v 18.89649 H 302.36133 V 188.97656 Z"
         style="color:#000000;font-style:normal;font-variant:normal;font-weight:normal;font-stretch:normal;font-size:medium;line-height:normal;font-family:sans-serif;font-variant-ligatures:normal;font-variant-position:normal;font-variant-caps:normal;font-variant-numeric:normal;font-variant-alternates:normal;font-variant-east-asian:normal;font-feature-settings:normal;font-variation-settings:normal;text-indent:0;text-align:start;text-decoration:none;text-decoration-line:none;text-decoration-style:solid;text-decoration-color:#000000;letter-spacing:normal;word-spacing:normal;text-transform:none;writing-mode:lr-tb;direction:ltr;text-orientation:mixed;dominant-baseline:auto;baseline-shift:baseline;text-anchor:start;white-space:normal;shape-padding:0;shape-margin:0;inline-size:0;clip-rule:nonzero;display:inline;overflow:visible;visibility:visible;isolation:auto;mix-blend-mode:normal;color-interpolation:sRGB;color-interpolation-filters:linearRGB;solid-color:#000000;solid-opacity:1;vector-effect:none;fill:#ffffff;fill-opacity:1;fill-rule:nonzero;stroke-width:0.999999;stroke-linecap:butt;stroke-linejoin:miter;stroke-miterlimit:4;stroke-dasharray:none;stroke-dashoffset:0;stroke-opacity:1;color-rendering:auto;image-rendering:auto;shape-rendering:auto;text-rendering:auto;enable-background:accumulate;stop-color:#000000;stop-opacity:1;stroke:none" />
      <path
         id="path903"
         d="M -0.5 -0.5 L -0.5 0 L -0.5 113.88672 L 19.398438 113.88672 L 19.398438 19.398438 L 113.88672 19.398438 L 113.88672 -0.5 L -0.5 -0.5 z M 188.47656 -0.5 L 188.47656 0 L 188.47656 19.398438 L 282.96484 19.398438 L 282.96484 113.88672 L 302.86133 113.88672 L 302.86133 -0.5 L 188.47656 -0.5 z M 0.5 0.5 L 112.88672 0.5 L 112.88672 18.398438 L 18.398438 18.398438 L 18.398438 112.88672 L 0.5 112.88672 L 0.5 0.5 z M 189.47656 0.5 L 301.86133 0.5 L 301.86133 112.88672 L 283.96484 112.88672 L 283.96484 18.398438 L 189.47656 18.398438 L 189.47656 0.5 z M -0.5 188.47656 L -0.5 188.97656 L -0.5 302.86133 L 113.88672 302.86133 L 113.88672 282.96484 L 19.398438 282.96484 L 19.398438 188.47656 L -0.5 188.47656 z M 282.96484 188.47656 L 282.96484 188.97656 L 282.96484 282.96484 L 188.47656 282.96484 L 188.47656 302.86133 L 302.86133 302.86133 L 302.86133 188.47656 L 282.96484 188.47656 z M 0.5 189.47656 L 18.398438 189.47656 L 18.398438 283.96484 L 112.88672 283.96484 L 112.88672 301.86133 L 0.5 301.86133 L 0.5 189.47656 z M 283.96484 189.47656 L 301.86133 189.47656 L 301.86133 301.86133 L 189.47656 301.86133 L 189.47656 283.96484 L 283.96484 283.96484 L 283.96484 189.47656 z "
         style="color:#000000;font-style:normal;font-variant:normal;font-weight:normal;font-stretch:normal;font-size:medium;line-height:normal;font-family:sans-serif;font-variant-ligatures:normal;font-variant-position:normal;font-variant-caps:normal;font-variant-numeric:normal;font-variant-alternates:normal;font-variant-east-asian:normal;font-feature-settings:normal;font-variation-settings:normal;text-indent:0;text-align:start;text-decoration:none;text-decoration-line:none;text-decoration-style:solid;text-decoration-color:#000000;letter-spacing:normal;word-spacing:normal;text-transform:none;writing-mode:lr-tb;direction:ltr;text-orientation:mixed;dominant-baseline:auto;baseline-shift:baseline;text-anchor:start;white-space:normal;shape-padding:0;shape-margin:0;inline-size:0;clip-rule:nonzero;display:inline;overflow:visible;visibility:visible;isolation:auto;mix-blend-mode:normal;color-interpolation:sRGB;color-interpolation-filters:linearRGB;solid-color:#000000;solid-opacity:1;vector-effect:none;fill-opacity:1;fill-rule:nonzero;stroke-width:0.999999;stroke-linecap:butt;stroke-linejoin:miter;stroke-miterlimit:4;stroke-dasharray:none;stroke-dashoffset:0;stroke-opacity:1;color-rendering:auto;image-rendering:auto;shape-rendering:auto;text-rendering:auto;enable-background:accumulate;stop-color:#000000;stop-opacity:1;stroke:none;fill:#ffffff" />
    </g>
  </g>
</svg>
