<?xml version="1.0" encoding="UTF-8" standalone="no"?>
<svg
   xmlns:dc="http://purl.org/dc/elements/1.1/"
   xmlns:cc="http://creativecommons.org/ns#"
   xmlns:rdf="http://www.w3.org/1999/02/22-rdf-syntax-ns#"
   xmlns:svg="http://www.w3.org/2000/svg"
   xmlns="http://www.w3.org/2000/svg"
   xmlns:sodipodi="http://sodipodi.sourceforge.net/DTD/sodipodi-0.dtd"
   xmlns:inkscape="http://www.inkscape.org/namespaces/inkscape"
   width="30mm"
   height="20mm"
   viewBox="0 0 30 20"
   version="1.1"
   id="svg928"
   inkscape:version="1.0 (4035a4fb49, 2020-05-01)"
   sodipodi:docname="Left-Point Arrow.svg">
  <defs
     id="defs922" />
  <sodipodi:namedview
     id="base"
     pagecolor="#ffffff"
     bordercolor="#666666"
     borderopacity="1.0"
     inkscape:pageopacity="0.0"
     inkscape:pageshadow="2"
     inkscape:zoom="3.959798"
     inkscape:cx="101.11236"
     inkscape:cy="78.648709"
     inkscape:document-units="mm"
     inkscape:current-layer="layer1"
     inkscape:document-rotation="0"
     showgrid="false"
     inkscape:window-width="1920"
     inkscape:window-height="1017"
     inkscape:window-x="-8"
     inkscape:window-y="-8"
     inkscape:window-maximized="1" />
  <metadata
     id="metadata925">
    <rdf:RDF>
      <cc:Work
         rdf:about="">
        <dc:format>image/svg+xml</dc:format>
        <dc:type
           rdf:resource="http://purl.org/dc/dcmitype/StillImage" />
        <dc:title></dc:title>
      </cc:Work>
    </rdf:RDF>
  </metadata>
  <g
     inkscape:label="Layer 1"
     inkscape:groupmode="layer"
     id="layer1">
    <path
       id="rect1500"
       style="fill:#ffffff;stroke-width:0.193211"
       d="M 10.78939,5.1669088e-4 C 10.628262,0.00704415 10.465963,0.07220135 10.316032,0.20202758 L 0.54260452,8.664968 c -0.0469623,0.036165 -0.0914301,0.078085 -0.13367019,0.1245234 -0.001261,0.00139 -0.002533,0.00274 -0.003789,0.00413 -0.15389916,0.1708629 -0.27339792,0.4058637 -0.3414102,0.6799702 -2.1737e-4,8.704e-4 -4.7276e-4,0.00171 -6.8901e-4,0.00258 -0.01000429,0.040551 -0.01884419,0.081867 -0.02652733,0.1240067 -0.0019307,0.010474 -0.0037335,0.020985 -0.0055121,0.031519 -0.0019263,0.011548 -0.0041092,0.022964 -0.0058567,0.034619 -2.9162e-4,0.0019 -7.4701e-4,0.00378 -0.0010335,0.00568 -0.0029579,0.020098 -0.0051616,0.040573 -0.0075792,0.06097 -0.0020751,0.017199 -0.0038382,0.034359 -0.0055121,0.051669 C 0.0096482,9.7987613 0.00799408,9.8128623 0.00689098,9.8270043 0.00579,9.8415859 0.00495607,9.8562355 0.00413413,9.8709332 0.00306826,9.8895114 0.0026698,9.9080826 0.00206707,9.9267364 0.00147093,9.9448391 8.4534e-4,9.9629085 6.8902252e-4,9.9809893 6.4344206e-4,9.9869199 0,9.9926093 0,9.9985568 c 0,0.00662 6.3252172e-4,0.013032 6.8902252e-4,0.019634 1.5260498e-4,0.01791 7.9394748e-4,0.03581 0.001378047,0.05374 6.1794e-4,0.01934 0.00129618,0.03861 0.00241157,0.05787 7.4215e-4,0.01295 0.00145333,0.0259 0.00241158,0.03875 0.00110527,0.0145 0.00274114,0.02892 0.00413415,0.0434 0.0019913,0.02091 0.00397,0.04177 0.0065457,0.06252 0.0021143,0.01718 0.0043914,0.03419 0.0068902,0.05115 8.0325e-4,0.0054 0.001912,0.01066 0.0027561,0.01602 1.9039e-4,0.0012 4.9663e-4,0.0024 6.89e-4,0.0036 0.0035515,0.02251 0.0071281,0.04493 0.01136885,0.06717 0.005418,0.02852 0.01142192,0.05643 0.01791457,0.08422 0.003685,0.01575 0.0073328,0.03145 0.01136886,0.04702 0.0081014,0.03127 0.01709792,0.06177 0.02652736,0.09197 0.0041033,0.01315 0.0080405,0.02629 0.01240237,0.03927 0.008568,0.02548 0.0177249,0.05031 0.0272164,0.07492 4.1519e-4,0.0011 9.615e-4,0.002 0.001378,0.0031 0.006947,0.01792 0.0139017,0.0357 0.0213597,0.05322 0.0104286,0.02448 0.0213948,0.04834 0.0327285,0.07182 1.4797e-4,3.06e-4 1.9637e-4,7.27e-4 3.445e-4,0.001 0.007068,0.01462 0.0142619,0.02913 0.0217042,0.0434 0.0122663,0.02353 0.0250747,0.04635 0.0382407,0.06872 0.001987,0.0034 0.003852,0.007 0.005857,0.01033 0.005756,0.0096 0.0116315,0.01902 0.01757,0.02842 0.0136411,0.02161 0.0275565,0.04268 0.0420303,0.06304 0.005102,0.0072 0.0103134,0.01414 0.015503,0.02118 0.003212,0.0043 0.006391,0.0086 0.009646,0.01292 0.0130713,0.01717 0.0262993,0.03398 0.0399632,0.05012 0.0110846,0.01317 0.0223577,0.02584 0.0337621,0.03824 0.003743,0.0041 0.007593,0.0079 0.0113688,0.01188 0.008401,0.0088 0.0169042,0.01739 0.0254938,0.02583 0.0154243,0.01524 0.0309463,0.03004 0.0468534,0.04392 8.085e-4,7.05e-4 0.001601,0.0014 0.002411,0.0021 l 0.016881,0.01447 c 0.002442,0.002 0.00478,0.0042 0.007235,0.0062 L 10.316032,19.79767 c 0.479779,0.415443 1.088984,0.17084 1.365984,-0.54873 0.277002,-0.71957 0.113566,-1.633767 -0.366214,-2.049211 L 4.7315115,11.498521 H 29.000232 c 0.554,0 0.999768,-0.669076 0.999768,-1.4999642 2e-6,-0.830888 -0.445768,-1.4994477 -0.999768,-1.4994477 H 4.7342675 L 11.315802,2.7999678 C 11.795582,2.384524 11.959018,1.4708438 11.682016,0.75127393 11.491579,0.25656955 11.14387,-0.01384371 10.78939,5.1669088e-4 Z" />
  </g>
</svg>
