<?xml version="1.0" encoding="UTF-8" standalone="no"?>
<svg
   xmlns:dc="http://purl.org/dc/elements/1.1/"
   xmlns:cc="http://creativecommons.org/ns#"
   xmlns:rdf="http://www.w3.org/1999/02/22-rdf-syntax-ns#"
   xmlns:svg="http://www.w3.org/2000/svg"
   xmlns="http://www.w3.org/2000/svg"
   xmlns:sodipodi="http://sodipodi.sourceforge.net/DTD/sodipodi-0.dtd"
   xmlns:inkscape="http://www.inkscape.org/namespaces/inkscape"
   sodipodi:docname="Down-Point Arrow.svg"
   inkscape:version="1.0 (4035a4fb49, 2020-05-01)"
   id="svg928"
   version="1.1"
   viewBox="0 0 20 45"
   height="45mm"
   width="20mm">
  <defs
     id="defs922" />
  <sodipodi:namedview
     inkscape:window-maximized="1"
     inkscape:window-y="-8"
     inkscape:window-x="-8"
     inkscape:window-height="1017"
     inkscape:window-width="1920"
     showgrid="false"
     inkscape:document-rotation="0"
     inkscape:current-layer="layer1"
     inkscape:document-units="mm"
     inkscape:cy="78.648709"
     inkscape:cx="101.11236"
     inkscape:zoom="3.959798"
     inkscape:pageshadow="2"
     inkscape:pageopacity="0.0"
     borderopacity="1.0"
     bordercolor="#666666"
     pagecolor="#ffffff"
     id="base" />
  <metadata
     id="metadata925">
    <rdf:RDF>
      <cc:Work
         rdf:about="">
        <dc:format>image/svg+xml</dc:format>
        <dc:type
           rdf:resource="http://purl.org/dc/dcmitype/StillImage" />
        <dc:title></dc:title>
      </cc:Work>
    </rdf:RDF>
  </metadata>
  <g
     id="layer1"
     inkscape:groupmode="layer"
     inkscape:label="Layer 1">
    <path
       d="m 19.999456,28.81581 c -0.0065,0.241691 -0.07168,0.485138 -0.20151,0.710034 l -8.462941,14.660087 c -0.03617,0.07044 -0.07809,0.137145 -0.124523,0.200505 -0.0014,0.0019 -0.0027,0.0038 -0.0041,0.0057 -0.170863,0.230848 -0.405864,0.410095 -0.67997,0.512113 -8.71e-4,3.26e-4 -0.0017,7.09e-4 -0.0026,10e-4 -0.04055,0.01501 -0.08187,0.02827 -0.124007,0.03979 -0.01047,0.0029 -0.02098,0.0056 -0.03152,0.0083 -0.01155,0.0029 -0.02296,0.0062 -0.03462,0.0088 -0.0019,4.37e-4 -0.0038,0.0011 -0.0057,0.0016 -0.0201,0.0044 -0.04057,0.0077 -0.06097,0.01137 -0.0172,0.0031 -0.03436,0.0058 -0.05167,0.0083 -0.01413,0.0021 -0.02823,0.0045 -0.04237,0.0062 -0.01458,0.0017 -0.02923,0.0029 -0.04393,0.0041 -0.01858,0.0016 -0.03715,0.0022 -0.0558,0.0031 -0.0181,8.95e-4 -0.03617,0.0018 -0.05425,0.0021 -0.0059,6.9e-5 -0.01162,0.001 -0.01757,0.001 -0.0066,0 -0.01303,-9.49e-4 -0.01963,-0.001 -0.01791,-2.28e-4 -0.03581,-0.0012 -0.05374,-0.0021 -0.01934,-9.26e-4 -0.03861,-0.0019 -0.05787,-0.0036 -0.01295,-0.0011 -0.0259,-0.0022 -0.03875,-0.0036 -0.0145,-0.0017 -0.02892,-0.0041 -0.0434,-0.0062 -0.02091,-0.003 -0.04177,-0.006 -0.06252,-0.0098 -0.01718,-0.0032 -0.03419,-0.0066 -0.05115,-0.01034 -0.0054,-0.0012 -0.01066,-0.0029 -0.01602,-0.0041 -0.0012,-2.86e-4 -0.0024,-7.45e-4 -0.0036,-0.001 -0.02251,-0.0053 -0.04493,-0.01069 -0.06717,-0.01705 -0.02852,-0.0081 -0.05643,-0.01713 -0.08422,-0.02687 -0.01575,-0.0055 -0.03145,-0.011 -0.04702,-0.01705 -0.03127,-0.01215 -0.06177,-0.02565 -0.09197,-0.03979 -0.01315,-0.0062 -0.02629,-0.01206 -0.03927,-0.0186 -0.02548,-0.01285 -0.05031,-0.02659 -0.07492,-0.04082 -0.0011,-6.23e-4 -0.002,-0.0014 -0.0031,-0.0021 -0.01792,-0.01042 -0.0357,-0.02085 -0.05322,-0.03204 -0.02448,-0.01564 -0.04834,-0.03209 -0.07182,-0.04909 -3.06e-4,-2.22e-4 -7.27e-4,-2.94e-4 -10e-4,-5.17e-4 -0.01462,-0.0106 -0.02913,-0.02139 -0.0434,-0.03256 -0.02353,-0.0184 -0.04635,-0.03761 -0.06872,-0.05736 -0.0034,-0.003 -0.007,-0.0058 -0.01033,-0.0088 -0.0096,-0.0086 -0.01902,-0.01745 -0.02842,-0.02635 -0.02161,-0.02046 -0.04268,-0.04133 -0.06304,-0.06305 -0.0072,-0.0077 -0.01414,-0.01547 -0.02118,-0.02325 -0.0043,-0.0048 -0.0086,-0.0096 -0.01292,-0.01447 -0.01717,-0.01961 -0.03398,-0.03945 -0.05012,-0.05994 -0.01317,-0.01663 -0.02584,-0.03354 -0.03824,-0.05064 -0.0041,-0.0056 -0.0079,-0.01139 -0.01188,-0.01705 -0.0088,-0.0126 -0.01739,-0.02536 -0.02583,-0.03824 -0.01524,-0.02314 -0.03004,-0.04642 -0.04392,-0.07028 -7.05e-4,-0.0012 -0.0014,-0.0024 -0.0021,-0.0036 l -0.01447,-0.02532 c -0.002,-0.0037 -0.0042,-0.0072 -0.0062,-0.01085 L 0.20230273,29.525844 c -0.415443,-0.719667 -0.17084,-1.63347 0.54873,-2.04897 0.71956997,-0.4155 1.63376697,-0.170347 2.04921097,0.54932 l 5.701208,9.8764 V 1.499647 C 8.5014517,0.668649 9.1705277,0 10.001416,0 c 0.830888,-2.9999899e-6 1.499448,0.668649 1.499448,1.499647 V 37.89846 l 5.699141,-9.872266 c 0.415444,-0.719667 1.329124,-0.96482 2.048694,-0.54932 0.494705,0.285656 0.765118,0.807217 0.750757,1.338936 z"
       style="fill:#ffffff;stroke-width:0.236634"
       id="rect1500" />
  </g>
</svg>
