<?xml version="1.0" encoding="UTF-8" standalone="no"?>
<svg
   xmlns:dc="http://purl.org/dc/elements/1.1/"
   xmlns:cc="http://creativecommons.org/ns#"
   xmlns:rdf="http://www.w3.org/1999/02/22-rdf-syntax-ns#"
   xmlns:svg="http://www.w3.org/2000/svg"
   xmlns="http://www.w3.org/2000/svg"
   xmlns:sodipodi="http://sodipodi.sourceforge.net/DTD/sodipodi-0.dtd"
   xmlns:inkscape="http://www.inkscape.org/namespaces/inkscape"
   sodipodi:docname="Right-Point Arrow.svg"
   inkscape:version="1.0 (4035a4fb49, 2020-05-01)"
   id="svg928"
   version="1.1"
   viewBox="0 0 45 20"
   height="20mm"
   width="45mm">
  <defs
     id="defs922" />
  <sodipodi:namedview
     inkscape:window-maximized="1"
     inkscape:window-y="-8"
     inkscape:window-x="-8"
     inkscape:window-height="1017"
     inkscape:window-width="1920"
     showgrid="false"
     inkscape:document-rotation="0"
     inkscape:current-layer="layer1"
     inkscape:document-units="mm"
     inkscape:cy="78.648709"
     inkscape:cx="101.11236"
     inkscape:zoom="3.959798"
     inkscape:pageshadow="2"
     inkscape:pageopacity="0.0"
     borderopacity="1.0"
     bordercolor="#666666"
     pagecolor="#ffffff"
     id="base" />
  <metadata
     id="metadata925">
    <rdf:RDF>
      <cc:Work
         rdf:about="">
        <dc:format>image/svg+xml</dc:format>
        <dc:type
           rdf:resource="http://purl.org/dc/dcmitype/StillImage" />
        <dc:title></dc:title>
      </cc:Work>
    </rdf:RDF>
  </metadata>
  <g
     id="layer1"
     inkscape:groupmode="layer"
     inkscape:label="Layer 1">
    <path
       d="M 28.81581,5.1669088e-4 C 29.057501,0.00704415 29.300948,0.07220135 29.525844,0.20202758 L 44.185931,8.664968 c 0.07044,0.036165 0.137145,0.078085 0.200505,0.1245234 0.0019,0.00139 0.0038,0.00274 0.0057,0.00413 0.230848,0.1708629 0.410095,0.4058637 0.512113,0.6799702 3.26e-4,8.704e-4 7.09e-4,0.00171 0.001,0.00258 0.01501,0.040551 0.02827,0.081867 0.03979,0.1240067 0.0029,0.010474 0.0056,0.020985 0.0083,0.031519 0.0029,0.011548 0.0062,0.022964 0.0088,0.034619 4.37e-4,0.0019 0.0011,0.00378 0.0016,0.00568 0.0044,0.020098 0.0077,0.040573 0.01137,0.06097 0.0031,0.017199 0.0058,0.034359 0.0083,0.051669 0.0021,0.014126 0.0045,0.028227 0.0062,0.042369 0.0017,0.014582 0.0029,0.029231 0.0041,0.043929 0.0016,0.018578 0.0022,0.037149 0.0031,0.055803 8.95e-4,0.018103 0.0018,0.036172 0.0021,0.054253 6.9e-5,0.00593 0.001,0.01162 0.001,0.017568 0,0.00662 -9.49e-4,0.013032 -0.001,0.019634 -2.28e-4,0.01791 -0.0012,0.03581 -0.0021,0.05374 -9.26e-4,0.01934 -0.0019,0.03861 -0.0036,0.05787 -0.0011,0.01295 -0.0022,0.0259 -0.0036,0.03875 -0.0017,0.0145 -0.0041,0.02892 -0.0062,0.0434 -0.003,0.02091 -0.006,0.04177 -0.0098,0.06252 -0.0032,0.01718 -0.0066,0.03419 -0.01034,0.05115 -0.0012,0.0054 -0.0029,0.01066 -0.0041,0.01602 -2.86e-4,0.0012 -7.45e-4,0.0024 -0.001,0.0036 -0.0053,0.02251 -0.01069,0.04493 -0.01705,0.06717 -0.0081,0.02852 -0.01713,0.05643 -0.02687,0.08422 -0.0055,0.01575 -0.011,0.03145 -0.01705,0.04702 -0.01215,0.03127 -0.02565,0.06177 -0.03979,0.09197 -0.0062,0.01315 -0.01206,0.02629 -0.0186,0.03927 -0.01285,0.02548 -0.02659,0.05031 -0.04082,0.07492 -6.23e-4,0.0011 -0.0014,0.002 -0.0021,0.0031 -0.01042,0.01792 -0.02085,0.0357 -0.03204,0.05322 -0.01564,0.02448 -0.03209,0.04834 -0.04909,0.07182 -2.22e-4,3.06e-4 -2.94e-4,7.27e-4 -5.17e-4,0.001 -0.0106,0.01462 -0.02139,0.02913 -0.03256,0.0434 -0.0184,0.02353 -0.03761,0.04635 -0.05736,0.06872 -0.003,0.0034 -0.0058,0.007 -0.0088,0.01033 -0.0086,0.0096 -0.01745,0.01902 -0.02635,0.02842 -0.02046,0.02161 -0.04133,0.04268 -0.06305,0.06304 -0.0077,0.0072 -0.01547,0.01414 -0.02325,0.02118 -0.0048,0.0043 -0.0096,0.0086 -0.01447,0.01292 -0.01961,0.01717 -0.03945,0.03398 -0.05994,0.05012 -0.01663,0.01317 -0.03354,0.02584 -0.05064,0.03824 -0.0056,0.0041 -0.01139,0.0079 -0.01705,0.01188 -0.0126,0.0088 -0.02536,0.01739 -0.03824,0.02583 -0.02314,0.01524 -0.04642,0.03004 -0.07028,0.04392 -0.0012,7.05e-4 -0.0024,0.0014 -0.0036,0.0021 l -0.02532,0.01447 c -0.0037,0.002 -0.0072,0.0042 -0.01085,0.0062 L 29.525844,19.79767 c -0.719667,0.415443 -1.63347,0.17084 -2.04897,-0.54873 -0.4155,-0.71957 -0.170347,-1.633767 0.54932,-2.049211 l 9.8764,-5.701208 H 1.499647 C 0.668649,11.498521 0,10.829445 0,9.9985568 -2.9999899e-6,9.1676688 0.668649,8.4991091 1.499647,8.4991091 H 37.89846 L 28.026194,2.7999678 C 27.306527,2.384524 27.061374,1.4708438 27.476874,0.75127393 27.76253,0.25656955 28.284091,-0.01384371 28.81581,5.1669088e-4 Z"
       style="fill:#ffffff;stroke-width:0.236634"
       id="rect1500" />
  </g>
</svg>
