<?xml version="1.0" encoding="UTF-8" standalone="no"?>
<!DOCTYPE svg PUBLIC "-//W3C//DTD SVG 20010904//EN"
              "http://www.w3.org/TR/2001/REC-SVG-20010904/DTD/svg10.dtd">

<svg xmlns="http://www.w3.org/2000/svg"
     width="116.502mm" height="91.4402mm"
     viewBox="0 0 1376 1080">
  <path id="Selection"
        fill="none" stroke="black" stroke-width="1"
        d="M 232.00,16.00
           C 235.54,22.47 245.88,35.61 250.77,42.00
             250.77,42.00 275.53,75.00 275.53,75.00
             275.53,75.00 364.03,193.00 364.03,193.00
             364.03,193.00 398.63,239.00 398.63,239.00
             401.10,242.32 410.54,254.18 411.49,257.17
             412.10,259.07 412.00,261.97 412.00,264.00
             412.00,264.00 412.00,965.00 412.00,965.00
             412.03,981.17 419.93,991.58 431.49,1001.96
             439.35,1009.02 445.91,1013.74 456.00,1017.30
             463.88,1020.08 470.73,1020.99 479.00,1021.00
             479.00,1021.00 494.00,1022.00 494.00,1022.00
             494.00,1022.00 610.00,1022.00 610.00,1022.00
             610.00,1022.00 1270.00,1022.00 1270.00,1022.00
             1278.64,1021.99 1287.27,1020.50 1295.00,1016.45
             1311.37,1007.87 1325.30,986.74 1329.50,969.00
             1331.39,961.01 1331.01,955.04 1331.00,947.00
             1331.00,947.00 1330.00,932.00 1330.00,932.00
             1330.00,932.00 1330.00,904.00 1330.00,904.00
             1330.00,904.00 1331.00,889.00 1331.00,889.00
             1331.00,889.00 1331.00,807.00 1331.00,807.00
             1331.00,807.00 1331.00,660.00 1331.00,660.00
             1330.94,621.01 1308.10,582.61 1275.00,562.46
             1275.00,562.46 1261.00,555.54 1261.00,555.54
             1250.02,550.59 1235.09,546.15 1223.00,546.00
             1195.13,545.68 1182.07,545.55 1156.00,557.89
             1147.50,561.91 1137.15,569.40 1130.17,575.69
             1082.69,618.46 1077.71,695.47 1119.30,744.00
             1139.94,768.08 1171.98,784.62 1204.00,785.00
             1218.95,785.17 1230.35,785.05 1245.00,781.08
             1252.99,778.92 1260.53,775.52 1268.00,772.00
             1268.00,772.00 1268.00,930.00 1268.00,930.00
             1267.97,946.28 1265.29,958.96 1246.00,959.00
             1246.00,959.00 1229.00,959.00 1229.00,959.00
             1229.00,959.00 1215.00,958.00 1215.00,958.00
             1215.00,958.00 1089.00,958.00 1089.00,958.00
             1089.00,958.00 496.00,958.00 496.00,958.00
             492.60,957.99 489.28,958.07 486.00,957.01
             470.38,951.94 474.00,931.89 474.00,919.00
             474.00,919.00 474.00,883.00 474.00,883.00
             474.00,883.00 475.00,866.00 475.00,866.00
             475.00,866.00 475.00,796.00 475.00,796.00
             475.00,796.00 475.00,557.00 475.00,557.00
             475.00,557.00 476.00,542.00 476.00,542.00
             476.00,542.00 476.00,443.00 476.00,443.00
             476.00,443.00 476.00,264.00 476.00,264.00
             475.98,252.56 472.24,251.04 465.71,242.00
             465.71,242.00 439.98,207.91 439.98,207.91
             439.98,207.91 336.15,69.00 336.15,69.00
             336.15,69.00 307.63,31.00 307.63,31.00
             300.83,21.87 300.08,16.02 288.00,16.00
             288.00,16.00 232.00,16.00 232.00,16.00 Z
           M 451.00,198.00
           C 451.00,198.00 483.00,240.00 483.00,240.00
             489.43,234.97 497.92,221.95 503.23,215.00
             503.23,215.00 541.47,164.00 541.47,164.00
             541.47,164.00 614.37,67.00 614.37,67.00
             614.37,67.00 652.00,16.00 652.00,16.00
             652.00,16.00 597.00,16.00 597.00,16.00
             585.07,16.02 584.54,20.75 577.63,30.00
             577.63,30.00 554.43,60.99 554.43,60.99
             554.43,60.99 486.65,151.00 486.65,151.00
             486.65,151.00 451.00,198.00 451.00,198.00 Z
           M 1326.00,700.00
           C 1327.84,704.64 1327.00,719.22 1327.00,725.00
             1327.00,725.00 1327.00,780.00 1327.00,780.00
             1327.00,780.00 1326.00,795.00 1326.00,795.00
             1326.00,795.00 1326.00,934.00 1326.00,934.00
             1326.00,934.00 1326.82,945.00 1326.82,945.00
             1326.82,945.00 1325.33,967.00 1325.33,967.00
             1322.41,980.77 1318.68,986.69 1309.61,997.09
             1309.61,997.09 1301.96,1005.91 1301.96,1005.91
             1292.94,1014.58 1281.25,1017.98 1269.00,1018.00
             1269.00,1018.00 765.00,1018.00 765.00,1018.00
             765.00,1018.00 545.00,1018.00 545.00,1018.00
             545.00,1018.00 496.00,1018.00 496.00,1018.00
             496.00,1018.00 477.00,1017.00 477.00,1017.00
             472.98,1016.95 468.92,1016.43 465.00,1015.50
             456.00,1013.37 447.69,1009.02 440.00,1004.00
             440.00,1004.00 441.00,1002.00 441.00,1002.00
             424.88,994.14 416.03,979.83 416.00,962.00
             416.00,962.00 416.00,820.00 416.00,820.00
             416.00,820.00 416.00,263.00 416.00,263.00
             416.00,260.84 416.11,258.04 415.42,256.00
             414.27,252.66 405.31,241.46 402.65,238.00
             402.65,238.00 370.37,195.00 370.37,195.00
             370.37,195.00 279.02,73.09 279.02,73.09
             279.02,73.09 254.13,40.00 254.13,40.00
             250.14,34.69 242.77,25.56 240.00,20.00
             240.00,20.00 287.00,20.00 287.00,20.00
             289.33,20.00 292.50,19.76 294.54,20.99
             296.71,22.31 301.32,28.70 302.99,31.00
             302.99,31.00 317.73,51.00 317.73,51.00
             317.73,51.00 388.88,146.00 388.88,146.00
             388.88,146.00 449.47,227.00 449.47,227.00
             449.47,227.00 464.42,247.00 464.42,247.00
             466.35,249.65 470.23,254.20 471.27,257.00
             472.14,259.35 472.00,262.49 472.00,265.00
             472.00,265.00 472.00,479.00 472.00,479.00
             472.00,479.00 471.00,494.00 471.00,494.00
             471.00,494.00 471.00,577.00 471.00,577.00
             471.00,577.00 471.00,759.00 471.00,759.00
             471.00,759.00 470.00,774.00 470.00,774.00
             470.00,774.00 470.00,933.00 470.00,933.00
             469.99,942.27 468.83,948.52 476.10,955.91
             478.30,958.13 481.02,960.14 484.00,961.15
             486.88,962.12 490.00,962.00 493.00,962.00
             493.00,962.00 651.00,962.00 651.00,962.00
             651.00,962.00 1249.00,962.00 1249.00,962.00
             1251.53,962.00 1254.56,962.08 1257.00,961.44
             1268.26,958.49 1271.88,946.28 1272.00,936.00
             1272.00,936.00 1272.00,778.00 1272.00,778.00
             1272.00,775.56 1271.79,772.34 1273.02,770.18
             1274.43,767.71 1278.63,765.28 1281.00,763.52
             1286.38,759.53 1291.28,755.47 1296.09,750.82
             1309.04,738.29 1321.96,717.72 1326.00,700.00 Z
           M 644.00,20.00
           C 644.00,20.00 614.15,61.00 614.15,61.00
             614.15,61.00 542.67,156.16 542.67,156.16
             542.67,156.16 502.36,209.72 502.36,209.72
             502.36,209.72 483.00,234.00 483.00,234.00
             483.00,234.00 456.00,200.00 456.00,200.00
             458.31,194.10 465.70,185.33 469.77,180.00
             469.77,180.00 492.67,149.72 492.67,149.72
             492.67,149.72 533.02,95.91 533.02,95.91
             533.02,95.91 559.80,60.00 559.80,60.00
             559.80,60.00 580.67,32.28 580.67,32.28
             586.95,24.00 587.35,20.02 598.00,20.00
             598.00,20.00 644.00,20.00 644.00,20.00 Z
           M 635.00,252.21
           C 588.27,259.48 551.24,289.26 537.20,335.00
             533.56,346.86 531.86,361.61 532.00,374.00
             532.59,424.05 563.27,466.84 610.00,484.23
             620.39,488.09 632.87,490.87 644.00,491.00
             671.09,491.31 687.49,489.60 712.00,476.53
             720.19,472.16 726.92,466.87 733.74,460.66
             782.04,416.64 785.22,338.53 741.83,290.00
             725.51,271.75 700.28,257.34 676.00,253.28
             664.78,251.41 653.34,251.95 642.00,252.21
             642.00,252.21 635.00,252.21 635.00,252.21 Z
           M 827.00,252.00
           C 827.00,252.00 827.00,383.00 827.00,383.00
             827.02,397.27 831.48,412.27 837.76,425.00
             847.46,444.68 862.24,461.97 881.00,473.54
             924.55,500.40 988.77,497.07 1027.00,461.91
             1049.00,441.69 1065.95,411.52 1066.00,381.00
             1066.00,381.00 1066.00,338.00 1066.00,338.00
             1066.00,338.00 1066.00,252.00 1066.00,252.00
             1066.00,252.00 1003.00,252.00 1003.00,252.00
             1003.00,252.00 1003.00,345.00 1003.00,345.00
             1003.00,367.66 1005.93,383.92 992.19,403.83
             982.45,417.93 965.01,427.38 948.00,428.49
             943.20,428.80 936.61,427.52 932.00,426.12
             908.80,419.02 890.04,397.89 890.00,373.00
             890.00,373.00 890.00,252.00 890.00,252.00
             890.00,252.00 827.00,252.00 827.00,252.00 Z
           M 1121.00,252.00
           C 1121.00,252.00 1121.00,491.00 1121.00,491.00
             1121.00,491.00 1175.00,491.00 1175.00,491.00
             1175.00,491.00 1175.00,382.00 1175.00,382.00
             1175.00,382.00 1188.80,409.00 1188.80,409.00
             1188.80,409.00 1216.75,465.00 1216.75,465.00
             1216.75,465.00 1225.25,482.00 1225.25,482.00
             1225.25,482.00 1230.39,489.98 1230.39,489.98
             1230.39,489.98 1238.00,491.00 1238.00,491.00
             1238.00,491.00 1294.00,491.00 1294.00,491.00
             1294.00,491.00 1256.80,417.00 1256.80,417.00
             1256.80,417.00 1235.00,374.00 1235.00,374.00
             1252.08,371.75 1264.63,368.32 1276.83,354.99
             1286.33,344.60 1291.83,331.08 1292.00,317.00
             1292.10,308.51 1291.89,299.12 1289.10,291.00
             1285.17,279.57 1276.14,268.10 1266.00,261.55
             1247.52,249.60 1231.72,252.00 1211.00,252.00
             1211.00,252.00 1121.00,252.00 1121.00,252.00 Z
           M 649.00,255.28
           C 658.15,254.46 675.01,257.65 684.00,260.29
             730.82,274.08 767.42,318.39 768.00,368.00
             768.65,424.01 732.37,470.55 678.00,484.26
             665.52,487.40 657.59,487.14 645.00,487.00
             635.44,486.88 621.01,483.01 612.00,479.62
             566.04,462.31 538.83,421.27 536.09,373.00
             535.87,369.14 536.49,367.53 537.07,364.00
             537.07,364.00 537.07,356.00 537.07,356.00
             538.89,344.84 542.65,333.24 547.31,323.00
             561.29,292.32 588.91,269.56 621.00,260.04
             630.36,257.26 639.45,256.66 649.00,255.28 Z
           M 886.00,255.00
           C 886.00,255.00 886.00,375.00 886.00,375.00
             886.01,383.02 886.95,387.46 889.69,395.00
             904.96,436.94 966.40,448.41 996.51,407.00
             1009.22,389.52 1007.00,372.21 1007.00,352.00
             1007.00,352.00 1007.00,255.00 1007.00,255.00
             1007.00,255.00 1062.00,255.00 1062.00,255.00
             1062.00,255.00 1062.00,337.00 1062.00,337.00
             1062.00,352.92 1062.93,376.95 1060.56,392.00
             1056.84,415.60 1042.14,440.49 1024.68,456.50
             979.10,498.27 910.80,497.00 865.98,454.82
             857.60,446.94 849.12,435.14 843.71,425.00
             836.99,412.41 831.02,396.39 831.00,382.00
             831.00,382.00 831.00,255.00 831.00,255.00
             831.00,255.00 886.00,255.00 886.00,255.00 Z
           M 1230.00,370.00
           C 1230.00,370.00 1242.74,397.00 1242.74,397.00
             1242.74,397.00 1270.51,453.00 1270.51,453.00
             1270.51,453.00 1287.00,487.00 1287.00,487.00
             1287.00,487.00 1240.00,487.00 1240.00,487.00
             1237.87,487.00 1234.42,487.25 1232.63,486.01
             1230.80,484.72 1228.80,480.10 1227.75,478.00
             1227.75,478.00 1218.75,460.00 1218.75,460.00
             1218.75,460.00 1186.75,396.00 1186.75,396.00
             1183.01,388.52 1173.34,371.14 1172.00,364.00
             1170.06,370.81 1171.00,395.35 1171.00,404.00
             1171.00,404.00 1171.00,487.00 1171.00,487.00
             1171.00,487.00 1125.00,487.00 1125.00,487.00
             1125.00,487.00 1125.00,255.00 1125.00,255.00
             1125.00,255.00 1201.00,255.00 1201.00,255.00
             1201.00,255.00 1218.00,256.00 1218.00,256.00
             1235.77,256.03 1248.14,255.47 1263.58,266.47
             1292.64,287.17 1296.66,327.77 1270.98,352.91
             1258.73,364.90 1246.67,368.65 1230.00,370.00 Z
           M 1171.00,281.00
           C 1171.00,281.00 1171.00,344.00 1171.00,344.00
             1171.00,344.00 1212.00,344.00 1212.00,344.00
             1223.03,344.02 1229.82,346.93 1241.00,341.81
             1268.30,329.33 1262.43,281.17 1229.00,281.00
             1229.00,281.00 1171.00,281.00 1171.00,281.00 Z
           M 1175.00,340.00
           C 1175.00,340.00 1175.00,285.00 1175.00,285.00
             1175.00,285.00 1214.00,285.00 1214.00,285.00
             1225.12,285.00 1232.16,283.54 1241.95,290.35
             1257.65,301.35 1257.68,323.84 1241.95,334.95
             1232.23,341.85 1227.64,340.05 1217.00,340.00
             1217.00,340.00 1175.00,340.00 1175.00,340.00 Z
           M 642.00,311.43
           C 627.03,313.89 614.17,320.09 604.33,332.00
             596.21,341.83 591.15,355.25 591.00,368.00
             590.92,375.51 590.79,380.55 592.50,388.00
             596.63,406.02 610.19,421.06 627.00,428.32
             638.60,433.34 651.70,433.72 664.00,431.87
             708.12,425.21 726.51,371.18 702.40,336.01
             688.52,315.77 665.58,308.52 642.00,311.43 Z
           M 647.00,315.29
           C 674.02,312.76 699.13,331.15 706.42,357.00
             707.53,360.92 709.00,369.03 708.79,373.00
             707.19,403.69 684.09,425.82 654.00,428.70
             649.32,429.15 640.57,427.52 636.00,426.12
             606.74,417.13 589.53,387.73 596.90,358.00
             601.44,339.68 616.40,324.35 634.00,318.09
             638.26,316.57 642.55,315.96 647.00,315.29 Z
           M 59.00,546.00
           C 59.00,546.00 59.00,1021.00 59.00,1021.00
             59.00,1021.00 122.00,1021.00 122.00,1021.00
             122.00,1021.00 122.00,786.00 122.00,786.00
             122.00,786.00 354.00,786.00 354.00,786.00
             354.00,786.00 354.00,723.00 354.00,723.00
             354.00,723.00 122.00,723.00 122.00,723.00
             122.00,723.00 122.00,608.00 122.00,608.00
             122.00,608.00 354.00,608.00 354.00,608.00
             354.00,608.00 354.00,546.00 354.00,546.00
             354.00,546.00 59.00,546.00 59.00,546.00 Z
           M 553.00,546.00
           C 553.00,546.00 553.00,785.00 553.00,785.00
             553.00,785.00 734.00,785.00 734.00,785.00
             734.00,785.00 734.00,722.00 734.00,722.00
             734.00,722.00 616.00,722.00 616.00,722.00
             616.00,722.00 616.00,546.00 616.00,546.00
             616.00,546.00 553.00,546.00 553.00,546.00 Z
           M 827.00,546.00
           C 827.00,546.00 827.00,608.00 827.00,608.00
             827.00,608.00 886.00,608.00 886.00,608.00
             886.00,608.00 886.00,722.00 886.00,722.00
             886.00,722.00 827.00,722.00 827.00,722.00
             827.00,722.00 827.00,785.00 827.00,785.00
             827.00,785.00 1008.00,785.00 1008.00,785.00
             1008.00,785.00 1008.00,722.00 1008.00,722.00
             1008.00,722.00 949.00,722.00 949.00,722.00
             949.00,722.00 949.00,608.00 949.00,608.00
             949.00,608.00 1008.00,608.00 1008.00,608.00
             1008.00,608.00 1008.00,546.00 1008.00,546.00
             1008.00,546.00 827.00,546.00 827.00,546.00 Z
           M 350.00,549.00
           C 350.00,549.00 350.00,604.00 350.00,604.00
             350.00,604.00 118.00,604.00 118.00,604.00
             118.00,604.00 118.00,727.00 118.00,727.00
             118.00,727.00 350.00,727.00 350.00,727.00
             350.00,727.00 350.00,782.00 350.00,782.00
             350.00,782.00 118.00,782.00 118.00,782.00
             118.00,782.00 118.00,1017.00 118.00,1017.00
             118.00,1017.00 63.00,1017.00 63.00,1017.00
             63.00,1017.00 63.00,549.00 63.00,549.00
             63.00,549.00 350.00,549.00 350.00,549.00 Z
           M 612.00,549.00
           C 612.00,549.00 612.00,726.00 612.00,726.00
             612.00,726.00 730.00,726.00 730.00,726.00
             730.00,726.00 730.00,781.00 730.00,781.00
             730.00,781.00 557.00,781.00 557.00,781.00
             557.00,781.00 557.00,549.00 557.00,549.00
             557.00,549.00 612.00,549.00 612.00,549.00 Z
           M 1004.00,549.00
           C 1004.00,549.00 1004.00,604.00 1004.00,604.00
             1004.00,604.00 945.00,604.00 945.00,604.00
             945.00,604.00 945.00,726.00 945.00,726.00
             945.00,726.00 1004.00,726.00 1004.00,726.00
             1004.00,726.00 1004.00,781.00 1004.00,781.00
             1004.00,781.00 831.00,781.00 831.00,781.00
             831.00,781.00 831.00,726.00 831.00,726.00
             831.00,726.00 890.00,726.00 890.00,726.00
             890.00,726.00 890.00,604.00 890.00,604.00
             890.00,604.00 831.00,604.00 831.00,604.00
             831.00,604.00 831.00,549.00 831.00,549.00
             831.00,549.00 1004.00,549.00 1004.00,549.00 Z
           M 1208.00,549.28
           C 1217.15,548.46 1234.01,551.65 1243.00,554.29
             1289.94,568.12 1326.41,612.27 1327.00,662.00
             1327.65,718.04 1291.44,764.53 1237.00,778.26
             1224.52,781.40 1216.59,781.14 1204.00,781.00
             1193.84,780.88 1181.52,777.31 1172.00,773.86
             1112.44,752.29 1080.16,685.55 1102.53,626.00
             1115.92,590.37 1143.75,565.05 1180.00,554.04
             1189.21,551.24 1198.56,550.64 1208.00,549.28 Z
           M 1203.00,555.21
           C 1185.89,557.91 1180.63,557.69 1164.00,565.31
             1133.28,579.39 1109.71,608.59 1103.75,642.00
             1102.63,648.28 1102.03,649.33 1102.00,656.00
             1101.92,673.49 1101.22,683.77 1106.75,701.00
             1118.05,736.25 1147.86,764.06 1184.00,772.35
             1189.58,773.63 1195.26,774.93 1201.00,775.00
             1201.00,775.00 1220.00,775.00 1220.00,775.00
             1249.95,774.95 1282.39,756.57 1300.00,732.83
             1337.41,682.39 1326.29,607.50 1273.00,572.70
             1254.33,560.50 1231.18,554.74 1209.00,555.21
             1209.00,555.21 1203.00,555.21 1203.00,555.21 Z
           M 1248.00,566.00
           C 1243.95,571.66 1227.76,587.54 1222.04,592.82
             1220.22,594.50 1214.11,600.79 1211.82,600.70
             1208.75,600.58 1203.22,594.22 1201.00,592.00
             1194.71,585.71 1180.56,572.37 1176.00,566.00
             1191.90,559.89 1209.17,557.89 1226.00,560.30
             1226.00,560.30 1248.00,566.00 1248.00,566.00 Z
           M 1211.00,608.00
           C 1211.00,608.00 1240.68,578.74 1240.68,578.74
             1243.67,575.98 1248.30,569.64 1252.00,568.92
             1256.14,568.13 1265.53,574.34 1269.00,576.67
             1282.18,585.51 1292.48,595.64 1301.14,609.00
             1303.11,612.04 1308.36,620.50 1307.87,624.00
             1307.37,627.62 1299.69,634.58 1296.82,637.32
             1296.82,637.32 1278.74,655.49 1278.74,655.49
             1274.65,659.72 1271.63,661.44 1269.00,667.00
             1274.91,669.79 1277.95,674.17 1282.42,678.72
             1282.42,678.72 1298.91,695.02 1298.91,695.02
             1300.87,697.02 1307.65,703.68 1308.07,706.04
             1308.71,709.68 1302.70,718.67 1300.69,722.00
             1292.91,734.90 1281.45,745.72 1269.00,754.00
             1265.61,756.25 1257.20,761.76 1253.17,761.53
             1249.15,761.31 1244.38,754.82 1241.66,752.04
             1241.66,752.04 1212.00,722.00 1212.00,722.00
             1212.00,722.00 1185.00,750.00 1185.00,750.00
             1182.40,752.60 1174.99,760.68 1172.00,761.65
             1167.98,762.96 1157.57,756.21 1154.00,753.91
             1141.35,745.76 1128.85,733.04 1121.28,720.00
             1119.47,716.87 1114.84,709.53 1114.95,706.09
             1115.06,702.74 1120.01,698.66 1122.33,696.33
             1122.33,696.33 1143.65,675.04 1143.65,675.04
             1145.72,672.92 1151.99,667.72 1151.96,664.99
             1151.93,662.23 1146.94,657.98 1145.04,656.00
             1145.04,656.00 1123.96,634.83 1123.96,634.83
             1120.71,631.74 1114.59,626.96 1115.68,621.96
             1116.63,617.58 1121.13,610.77 1123.67,607.00
             1131.38,595.55 1143.11,583.47 1155.00,576.31
             1158.56,574.16 1167.85,567.82 1171.83,568.92
             1174.27,569.60 1180.60,576.57 1182.82,578.68
             1188.41,584.00 1207.74,602.73 1211.00,608.00 Z
           M 1113.00,629.00
           C 1113.00,629.00 1149.00,664.00 1149.00,664.00
             1149.00,664.00 1131.00,683.00 1131.00,683.00
             1131.00,683.00 1112.00,701.00 1112.00,701.00
             1106.21,683.64 1104.31,668.23 1106.87,650.00
             1107.75,643.70 1109.70,634.39 1113.00,629.00 Z
           M 1311.00,629.00
           C 1320.41,654.57 1319.36,676.44 1311.00,702.00
             1311.00,702.00 1284.33,675.67 1284.33,675.67
             1282.49,673.82 1275.91,667.95 1275.80,665.68
             1275.64,662.53 1281.82,657.19 1284.00,655.00
             1290.39,648.61 1304.61,633.57 1311.00,629.00 Z
           M 1248.00,765.00
           C 1235.26,767.91 1230.25,770.98 1216.00,771.00
             1203.93,771.02 1198.02,771.29 1186.00,768.12
             1186.00,768.12 1175.00,765.00 1175.00,765.00
             1175.00,765.00 1200.00,739.00 1200.00,739.00
             1202.13,736.87 1208.46,729.97 1211.00,729.34
             1214.63,728.43 1219.64,734.64 1222.00,737.00
             1228.20,743.20 1244.78,758.19 1248.00,765.00 Z" />
</svg>
