<?xml version="1.0" encoding="UTF-8" standalone="no"?>
<svg
   xmlns:dc="http://purl.org/dc/elements/1.1/"
   xmlns:cc="http://creativecommons.org/ns#"
   xmlns:rdf="http://www.w3.org/1999/02/22-rdf-syntax-ns#"
   xmlns:svg="http://www.w3.org/2000/svg"
   xmlns="http://www.w3.org/2000/svg"
   xmlns:sodipodi="http://sodipodi.sourceforge.net/DTD/sodipodi-0.dtd"
   xmlns:inkscape="http://www.inkscape.org/namespaces/inkscape"
   width="116.501mm"
   height="116.501mm"
   viewBox="0 0 116.501 116.501"
   version="1.1"
   id="svg8"
   inkscape:version="1.0 (4035a4fb49, 2020-05-01)"
   sodipodi:docname="YourFlix Centered.svg"
   inkscape:export-filename="F:\16 Bit Git Repro\YourFlix MKIII\img\YourFlix.png"
   inkscape:export-xdpi="1080"
   inkscape:export-ydpi="1080">
  <defs
     id="defs2" />
  <sodipodi:namedview
     id="base"
     pagecolor="#ffffff"
     bordercolor="#666666"
     borderopacity="1.0"
     inkscape:pageopacity="0"
     inkscape:pageshadow="2"
     inkscape:zoom="1.4142136"
     inkscape:cx="210.6657"
     inkscape:cy="188.24305"
     inkscape:document-units="mm"
     inkscape:current-layer="layer2"
     inkscape:document-rotation="0"
     showgrid="false"
     height="91.44mm"
     inkscape:window-width="1920"
     inkscape:window-height="1017"
     inkscape:window-x="-8"
     inkscape:window-y="-8"
     inkscape:window-maximized="1" />
  <metadata
     id="metadata5">
    <rdf:RDF>
      <cc:Work
         rdf:about="">
        <dc:format>image/svg+xml</dc:format>
        <dc:type
           rdf:resource="http://purl.org/dc/dcmitype/StillImage" />
        <dc:title></dc:title>
      </cc:Work>
    </rdf:RDF>
  </metadata>
  <g
     inkscape:groupmode="layer"
     id="layer2"
     inkscape:label="Your Flix"
     style="display:inline">
    <path
       id="path922"
       d="m 19.571494,14.016787 5.423958,0.0031 15.24199,20.318096 v 58.334464 c 0.0092,0.338118 0.194892,0.773608 0.926531,1.012862 h 65.019377 c 0.51311,-0.153962 1.09898,-0.174537 1.10936,-1.520135 V 77.634711 c 2.07725,-1.74556 4.00285,-2.831588 5.34387,-8.581936 v 25.062314 c -0.0223,4.138807 -2.24259,4.663716 -4.58274,5.07841 H 41.224645 c -3.33001,0.116287 -6.027206,-0.522269 -6.407661,-4.15233 V 34.25557 Z"
       style="display:inline;fill:#8057e9;fill-opacity:1;stroke:#290e6c;stroke-width:0.5;stroke-linecap:butt;stroke-linejoin:miter;stroke-miterlimit:4;stroke-dasharray:none;stroke-opacity:1"
       sodipodi:nodetypes="ccccccccccccccc" />
    <path
       style="fill:#8057e9;fill-opacity:1;stroke:#290e6c;stroke-width:0.5;stroke-linecap:butt;stroke-linejoin:miter;stroke-miterlimit:4;stroke-dasharray:none;stroke-opacity:1"
       d="M 54.633871,14.221258 41.056072,32.584388 38.402221,29.206236 49.551127,14.230895 Z"
       id="path939" />
    <path
       style="fill:#8057e9;fill-opacity:1;stroke:#290e6c;stroke-width:0.5;stroke-linecap:butt;stroke-linejoin:miter;stroke-miterlimit:4;stroke-dasharray:none;stroke-opacity:1"
       d="M 70.003185,45.61262 V 33.865407 h 5.350774 c 0,0 0,8.318284 0,11.005719 0,2.687435 2.723916,4.174889 4.837307,4.162813 2.113391,-0.01208 4.726955,-1.580713 4.726955,-4.162813 0,-2.5821 0,-11.009355 0,-11.009355 h 5.330862 l -0.0083,11.736913 c 0,6.454961 -6.368435,8.472491 -9.812462,8.472491 -3.820922,0 -10.425136,-2.181273 -10.425136,-8.458591 z"
       id="path968"
       sodipodi:nodetypes="ccczzzcccscc" />
    <path
       id="path946"
       style="display:inline;fill:#8057e9;fill-opacity:1;stroke:#290e6c;stroke-width:0.499999;stroke-miterlimit:4;stroke-dasharray:none;stroke-opacity:1"
       d="M 55.150122,33.927937 A 10.00242,10.00242 0 0 0 45.147632,43.930426 10.00242,10.00242 0 0 0 55.150122,53.932917 10.00242,10.00242 0 0 0 65.15261,43.930426 10.00242,10.00242 0 0 0 55.150122,33.927937 Z m 0.03979,5.112349 a 5.000081,5.000081 0 0 1 0.02016,0 5.000081,5.000081 0 0 1 5.000212,4.999696 5.000081,5.000081 0 0 1 -5.000212,5.00021 5.000081,5.000081 0 0 1 -5.000212,-5.00021 5.000081,5.000081 0 0 1 4.980059,-4.999696 z" />
    <path
       id="path973"
       style="display:inline;fill:#8057e9;fill-opacity:1;stroke:#290e6c;stroke-width:0.5;stroke-linecap:butt;stroke-linejoin:miter;stroke-miterlimit:4;stroke-dasharray:none;stroke-opacity:1"
       d="m 95.18,34.147533 v 19.6727 h 4.382677 v -8.973094 l 4.530993,8.966893 h 5.19193 l -4.77129,-9.560655 c 0.52119,0 4.57698,-0.615763 4.57698,-5.129403 -0.0179,-2.269045 -1.30966,-4.97024 -4.57698,-4.97024 -3.26729,0 -9.33431,-0.0062 -9.33431,-0.0062 z m 9.4449,2.152323 c 0.37557,3.71e-4 1.78315,1.121662 1.75286,2.784843 -0.0303,1.663181 -1.39169,2.57297 -1.75286,2.57297 h -5.486485 v -5.329391 c 0,0 4.532135,-0.02842 5.486485,-0.02842 z" />
    <path
       style="display:inline;fill:#d6d6d6;fill-opacity:1;stroke:#3d3d3d;stroke-width:0.5;stroke-linecap:butt;stroke-linejoin:miter;stroke-miterlimit:4;stroke-dasharray:none;stroke-opacity:1"
       d="M 5.3887574,98.679565 H 10.576565 V 79.066172 H 29.674603 V 73.80652 H 10.578233 V 64.231992 H 29.680288 V 59.05299 H 5.3847375 Z"
       id="path981" />
    <path
       style="display:inline;fill:#d6d6d6;fill-opacity:1;stroke:#3d3d3d;stroke-width:0.5;stroke-linecap:butt;stroke-linejoin:miter;stroke-miterlimit:4;stroke-dasharray:none;stroke-opacity:1"
       d="M 47.108273,78.702038 H 61.85376 V 73.489003 H 52.2418 V 58.948518 h -5.130804 z"
       id="path984" />
    <path
       style="display:inline;fill:#d6d6d6;fill-opacity:1;stroke:#3d3d3d;stroke-width:0.485671;stroke-linecap:butt;stroke-linejoin:miter;stroke-miterlimit:4;stroke-dasharray:none;stroke-opacity:1"
       d="M 70.307852,78.801443 H 85.052165 V 73.566804 H 80.249811 V 64.099222 H 85.05117 V 58.951113 H 70.313476 v 5.142257 h 4.805993 v 9.465323 h -4.811277 z"
       id="path986" />
    <path
       id="path988"
       style="display:inline;fill:#d6d6d6;fill-opacity:1;stroke:#3d3d3d;stroke-width:0.530492;stroke-miterlimit:4;stroke-dasharray:none;stroke-opacity:1"
       d="m 102.63456,58.888687 a 9.9347543,9.9347543 0 0 0 -9.871232,9.934794 9.9347543,9.9347543 0 0 0 9.934792,9.934795 9.9347543,9.9347543 0 0 0 9.9348,-9.934795 9.9347543,9.9347543 0 0 0 -9.9348,-9.934794 9.9347543,9.9347543 0 0 0 -0.0636,0 z m 0.0372,0.845426 a 9.0989675,9.0989675 0 0 1 9.09918,9.099187 9.0989675,9.0989675 0 0 1 -3.07629,6.820255 c -0.39341,0.371517 -0.82704,0.693557 -1.30587,0.960665 a 9.0989675,9.0989675 0 0 1 -4.71702,1.318265 9.0989675,9.0989675 0 0 1 -4.574399,-1.234033 c -1.951816,-0.999794 -3.2189,-2.446279 -3.81889,-4.351673 A 9.0989675,9.0989675 0 0 1 93.573099,68.8333 9.0989675,9.0989675 0 0 1 97.225071,61.545373 c 0.0075,-0.0056 0.01474,-0.01146 0.02223,-0.01706 a 9.0989675,9.0989675 0 0 0 -0.02223,0.01706 c -1.393304,1.048335 -2.295247,2.588242 -3.078364,4.246769 l 3.145028,3.040124 -3.127459,3.122289 c 0.03455,0.133361 0.07354,0.263081 0.114205,0.392224 a 9.0989675,9.0989675 0 0 0 3.81889,4.351673 c 0.431604,0.221086 0.893778,0.421979 1.392679,0.599448 l 3.11661,-3.133659 3.04581,3.12229 c 0.63784,-0.15185 1.21306,-0.380415 1.73632,-0.672311 a 9.0989675,9.0989675 0 0 0 1.30587,-0.960665 c 1.00116,-0.945468 1.74399,-2.207065 2.30735,-3.687631 l -3.12798,-3.092833 3.11609,-3.186369 c -0.90062,-2.533261 -2.56196,-4.381945 -5.33197,-5.232755 l -3.08095,3.110405 -3.08715,-3.116091 c -0.871688,0.23467 -1.606188,0.606116 -2.240174,1.078487 a 9.0989675,9.0989675 0 0 1 5.421894,-1.792655 z" />
  </g>
</svg>
