<?xml version="1.0" encoding="UTF-8" standalone="no"?>
<svg
   xmlns:dc="http://purl.org/dc/elements/1.1/"
   xmlns:cc="http://creativecommons.org/ns#"
   xmlns:rdf="http://www.w3.org/1999/02/22-rdf-syntax-ns#"
   xmlns:svg="http://www.w3.org/2000/svg"
   xmlns="http://www.w3.org/2000/svg"
   xmlns:sodipodi="http://sodipodi.sourceforge.net/DTD/sodipodi-0.dtd"
   xmlns:inkscape="http://www.inkscape.org/namespaces/inkscape"
   width="116.501mm"
   height="91.440002mm"
   viewBox="0 0 116.501 91.440002"
   version="1.1"
   id="svg8"
   inkscape:version="1.0 (4035a4fb49, 2020-05-01)"
   sodipodi:docname="YourFlix.svg"
   inkscape:export-filename="F:\16 Bit Git Repro\YourFlix MKIII\img\YourFlix.png"
   inkscape:export-xdpi="1080"
   inkscape:export-ydpi="1080">
  <defs
     id="defs2" />
  <sodipodi:namedview
     id="base"
     pagecolor="#ffffff"
     bordercolor="#666666"
     borderopacity="1.0"
     inkscape:pageopacity="0"
     inkscape:pageshadow="2"
     inkscape:zoom="1.4142136"
     inkscape:cx="210.6657"
     inkscape:cy="188.24305"
     inkscape:document-units="mm"
     inkscape:current-layer="layer2"
     inkscape:document-rotation="0"
     showgrid="false"
     height="91.44mm"
     inkscape:window-width="1920"
     inkscape:window-height="1017"
     inkscape:window-x="-8"
     inkscape:window-y="-8"
     inkscape:window-maximized="1" />
  <metadata
     id="metadata5">
    <rdf:RDF>
      <cc:Work
         rdf:about="">
        <dc:format>image/svg+xml</dc:format>
        <dc:type
           rdf:resource="http://purl.org/dc/dcmitype/StillImage" />
        <dc:title />
      </cc:Work>
    </rdf:RDF>
  </metadata>
  <g
     inkscape:groupmode="layer"
     id="layer2"
     inkscape:label="Your Flix"
     style="display:inline">
    <path
       id="path922"
       d="m 19.571494,1.4865096 5.423958,0.0031 15.24199,20.3180964 V 80.14217 c 0.0092,0.338118 0.194892,0.773608 0.926531,1.012862 h 65.019377 c 0.51311,-0.153962 1.09898,-0.174537 1.10936,-1.520135 V 65.104434 c 2.07725,-1.74556 4.00285,-2.831588 5.34387,-8.581936 v 25.062314 c -0.0223,4.138807 -2.24259,4.663716 -4.58274,5.07841 H 41.224645 c -3.33001,0.116287 -6.027206,-0.522269 -6.407661,-4.15233 V 21.725293 Z"
       style="display:inline;fill:#8057e9;fill-opacity:1;stroke:#290e6c;stroke-width:0.5;stroke-linecap:butt;stroke-linejoin:miter;stroke-miterlimit:4;stroke-dasharray:none;stroke-opacity:1"
       sodipodi:nodetypes="ccccccccccccccc" />
    <path
       style="fill:#8057e9;fill-opacity:1;stroke:#290e6c;stroke-width:0.5;stroke-linecap:butt;stroke-linejoin:miter;stroke-miterlimit:4;stroke-dasharray:none;stroke-opacity:1"
       d="M 54.633871,1.6909814 41.056072,20.054111 38.402221,16.675959 49.551127,1.7006182 Z"
       id="path939" />
    <path
       style="fill:#8057e9;fill-opacity:1;stroke:#290e6c;stroke-width:0.5;stroke-linecap:butt;stroke-linejoin:miter;stroke-miterlimit:4;stroke-dasharray:none;stroke-opacity:1"
       d="M 70.003185,33.082343 V 21.33513 h 5.350774 c 0,0 0,8.318284 0,11.005719 0,2.687435 2.723916,4.174889 4.837307,4.162813 2.113391,-0.01208 4.726955,-1.580713 4.726955,-4.162813 0,-2.5821 0,-11.009355 0,-11.009355 h 5.330862 l -0.0083,11.736913 c 0,6.454961 -6.368435,8.472491 -9.812462,8.472491 -3.820922,0 -10.425136,-2.181273 -10.425136,-8.458591 z"
       id="path968"
       sodipodi:nodetypes="ccczzzcccscc" />
    <path
       id="path946"
       style="display:inline;fill:#8057e9;fill-opacity:1;stroke:#290e6c;stroke-width:1.88976;stroke-miterlimit:4;stroke-dasharray:none;stroke-opacity:1"
       d="m 208.44141,80.873047 a 37.804422,37.804422 0 0 0 -37.80469,37.804683 37.804422,37.804422 0 0 0 37.80469,37.80469 37.804422,37.804422 0 0 0 37.80468,-37.80469 37.804422,37.804422 0 0 0 -37.80468,-37.804683 z m 0.15039,19.322263 a 18.897944,18.897944 0 0 1 0.0762,0 18.897944,18.897944 0 0 1 18.89844,18.89649 18.897944,18.897944 0 0 1 -18.89844,18.89843 18.897944,18.897944 0 0 1 -18.89844,-18.89843 18.897944,18.897944 0 0 1 18.82227,-18.89649 z"
       transform="scale(0.26458333)" />
    <path
       id="path973"
       style="display:inline;fill:#8057e9;fill-opacity:1;stroke:#290e6c;stroke-width:0.5;stroke-linecap:butt;stroke-linejoin:miter;stroke-miterlimit:4;stroke-dasharray:none;stroke-opacity:1"
       d="m 95.18,21.617256 v 19.6727 h 4.382677 v -8.973094 l 4.530993,8.966893 h 5.19193 L 104.51431,31.7231 c 0.52119,0 4.57698,-0.615763 4.57698,-5.129403 -0.0179,-2.269045 -1.30966,-4.97024 -4.57698,-4.97024 -3.26729,0 -9.33431,-0.0062 -9.33431,-0.0062 z m 9.4449,2.152323 c 0.37557,3.71e-4 1.78315,1.121662 1.75286,2.784843 -0.0303,1.663181 -1.39169,2.57297 -1.75286,2.57297 h -5.486485 v -5.329391 c 0,0 4.532135,-0.02842 5.486485,-0.02842 z" />
    <path
       style="display:inline;fill:#d6d6d6;fill-opacity:1;stroke:#3d3d3d;stroke-width:0.5;stroke-linecap:butt;stroke-linejoin:miter;stroke-miterlimit:4;stroke-dasharray:none;stroke-opacity:1"
       d="M 5.3887574,86.149288 H 10.576565 V 66.535895 H 29.674603 V 61.276243 H 10.578233 V 51.701715 H 29.680288 V 46.522713 H 5.3847375 Z"
       id="path981" />
    <path
       style="display:inline;fill:#d6d6d6;fill-opacity:1;stroke:#3d3d3d;stroke-width:0.5;stroke-linecap:butt;stroke-linejoin:miter;stroke-miterlimit:4;stroke-dasharray:none;stroke-opacity:1"
       d="M 47.108273,66.171761 H 61.85376 V 60.958726 H 52.2418 V 46.418241 h -5.130804 z"
       id="path984" />
    <path
       style="display:inline;fill:#d6d6d6;fill-opacity:1;stroke:#3d3d3d;stroke-width:0.485671;stroke-linecap:butt;stroke-linejoin:miter;stroke-miterlimit:4;stroke-dasharray:none;stroke-opacity:1"
       d="M 70.307852,66.271166 H 85.052165 V 61.036527 H 80.249811 V 51.568945 H 85.05117 V 46.420836 H 70.313476 v 5.142257 h 4.805993 v 9.465323 h -4.811277 z"
       id="path986" />
    <path
       transform="scale(0.26458333)"
       id="path988"
       style="display:inline;fill:#d6d6d6;fill-opacity:1;stroke:#3d3d3d;stroke-width:2.00501;stroke-miterlimit:4;stroke-dasharray:none;stroke-opacity:1"
       d="M 387.91016 175.21289 A 37.548678 37.548678 0 0 0 350.60156 212.76172 A 37.548678 37.548678 0 0 0 388.15039 250.31055 A 37.548678 37.548678 0 0 0 425.69922 212.76172 A 37.548678 37.548678 0 0 0 388.15039 175.21289 A 37.548678 37.548678 0 0 0 387.91016 175.21289 z M 388.05078 178.4082 A 34.389799 34.389799 0 0 1 422.44141 212.79883 A 34.389799 34.389799 0 0 1 410.81445 238.57617 C 409.32758 239.98033 407.68865 241.19749 405.87891 242.20703 A 34.389799 34.389799 0 0 1 388.05078 247.18945 A 34.389799 34.389799 0 0 1 370.76172 242.52539 C 363.38478 238.74664 358.5958 233.27961 356.32812 226.07812 A 34.389799 34.389799 0 0 1 353.66211 212.79883 A 34.389799 34.389799 0 0 1 367.46484 185.25391 C 367.49306 185.23267 367.5205 185.21058 367.54883 185.18945 A 34.389799 34.389799 0 0 0 367.46484 185.25391 C 362.19881 189.21612 358.78989 195.03624 355.83008 201.30469 L 367.7168 212.79492 L 355.89648 224.5957 C 356.02708 225.09974 356.17443 225.59002 356.32812 226.07812 A 34.389799 34.389799 0 0 0 370.76172 242.52539 C 372.39298 243.36099 374.13978 244.12027 376.02539 244.79102 L 387.80469 232.94727 L 399.31641 244.74805 C 401.72717 244.17413 403.90122 243.31026 405.87891 242.20703 A 34.389799 34.389799 0 0 0 410.81445 238.57617 C 414.59838 235.00275 417.40593 230.23451 419.53516 224.63867 L 407.71289 212.94922 L 419.49023 200.90625 C 416.08632 191.33172 409.80722 184.34457 399.33789 181.12891 L 387.69336 192.88477 L 376.02539 181.10742 C 372.73082 181.99436 369.95476 183.39825 367.55859 185.18359 A 34.389799 34.389799 0 0 1 388.05078 178.4082 z " />
  </g>
</svg>
